<?xml version="1.0" standalone="no"?>
<!DOCTYPE svg PUBLIC "-//W3C//DTD SVG 20010904//EN"
 "http://www.w3.org/TR/2001/REC-SVG-20010904/DTD/svg10.dtd">
<svg version="1.0" xmlns="http://www.w3.org/2000/svg"
 width="696.000000pt" height="696.000000pt" viewBox="0 0 696.000000 696.000000"
 preserveAspectRatio="xMidYMid meet">
<metadata>
Created by potrace 1.14, written by Peter Selinger 2001-2017
</metadata>
<g transform="translate(0.000000,696.000000) scale(0.100000,-0.100000)"
fill="#000000" stroke="none">
<path d="M2580 5254 c-36 -8 -87 -22 -115 -30 -50 -17 -226 -100 -235 -113 -3
-3 -25 -22 -50 -41 -70 -54 -220 -225 -220 -251 0 -4 -6 -14 -13 -21 -7 -7
-41 -62 -76 -123 -35 -60 -65 -112 -68 -115 -2 -3 -9 4 -15 15 -22 41 -165
174 -235 219 -82 53 -190 99 -289 122 -67 16 -231 21 -284 9 -14 -3 -41 -8
-60 -11 -291 -43 -630 -304 -782 -601 -96 -185 -132 -341 -133 -568 0 -196 25
-337 96 -550 58 -172 167 -404 248 -530 79 -123 248 -304 386 -413 44 -34 85
-66 91 -71 32 -26 182 -115 255 -151 182 -92 440 -177 679 -224 96 -18 173
-26 330 -30 113 -4 217 -8 233 -10 15 -3 55 -7 90 -11 34 -3 69 -8 77 -11 10
-2 60 41 135 117 194 196 295 281 420 350 118 65 205 147 305 287 126 177 200
326 194 392 -1 8 -2 23 -3 32 -2 29 -51 78 -77 78 -14 0 -43 -9 -66 -21 -30
-16 -51 -19 -77 -15 -72 13 -83 13 -117 -5 -19 -9 -58 -35 -87 -57 -34 -26
-66 -42 -94 -46 -70 -9 -123 -44 -137 -91 -5 -16 4 -26 46 -49 101 -57 158
-126 158 -191 0 -51 -50 -124 -123 -179 -29 -22 -143 -72 -187 -81 -14 -3
-122 -46 -375 -147 -55 -22 -132 -57 -171 -79 -46 -25 -78 -36 -92 -32 -12 3
-22 9 -22 14 0 10 118 80 232 136 101 50 301 131 403 164 135 42 203 89 243
163 20 37 20 50 0 92 -18 37 -88 62 -196 70 -87 6 -159 -7 -273 -52 -162 -63
-192 -62 -474 7 -71 17 -119 22 -225 22 -152 0 -225 -13 -389 -70 -137 -47
-192 -47 -316 -3 -144 52 -347 162 -475 257 -190 143 -375 415 -445 657 -25
89 -30 108 -45 201 -19 116 -3 378 27 455 3 8 7 20 8 25 5 18 43 110 57 135
43 79 100 154 172 226 140 139 273 220 446 271 85 25 110 28 245 28 117 0 163
-4 208 -18 151 -47 264 -118 429 -272 l56 -53 65 86 c219 292 432 461 652 518
80 20 264 26 347 11 94 -17 227 -56 281 -83 158 -80 295 -217 383 -383 44 -83
83 -121 123 -121 45 0 60 26 56 98 -8 144 -160 364 -333 480 -131 89 -287 155
-419 178 -13 2 -35 7 -50 10 -60 13 -269 12 -333 -2z"/>
<path d="M1579 4317 c-4 -5 -5 -1244 -1 -1254 3 -8 37 -12 113 -12 60 0 115 2
122 4 9 4 12 66 10 265 -1 192 2 260 10 261 7 0 137 1 289 1 201 0 278 3 280
11 2 7 4 57 4 112 l-1 100 -290 5 -290 5 -2 127 -1 128 321 2 322 3 1 121 1
122 -444 0 c-243 0 -444 0 -444 -1z"/>
<path d="M6862 3974 c-26 -18 -28 -50 -6 -82 18 -26 50 -28 82 -6 28 19 29 57
2 84 -24 24 -48 25 -78 4z m61 -3 c11 -1 25 -44 20 -59 -14 -36 -77 -35 -87 1
-7 28 18 66 41 62 10 -2 22 -4 26 -4z"/>
<path d="M6879 3958 c-1 -2 -2 -15 -3 -30 -3 -29 8 -38 18 -15 5 10 7 10 12 0
3 -7 9 -13 13 -13 11 0 8 44 -4 52 -10 7 -34 11 -36 6z m31 -12 c0 -3 -4 -8
-10 -11 -5 -3 -10 -1 -10 4 0 6 5 11 10 11 6 0 10 -2 10 -4z"/>
<path d="M2890 3973 c-87 -14 -191 -63 -251 -119 -27 -26 -49 -52 -49 -58 0
-11 132 -116 145 -116 4 0 23 13 43 29 85 66 194 79 282 34 32 -17 62 -40 72
-58 16 -29 31 -122 22 -137 -3 -4 -22 -1 -42 7 -87 33 -211 47 -287 31 -213
-44 -319 -186 -270 -361 20 -70 64 -119 143 -157 62 -30 74 -33 167 -32 118 0
191 24 248 79 20 19 38 35 41 35 2 0 7 -23 11 -50 l7 -51 116 3 117 3 0 270
c0 149 -3 295 -8 325 -29 193 -182 319 -397 325 -47 1 -96 0 -110 -2z m205
-548 c62 -30 72 -53 44 -106 -71 -140 -349 -131 -349 11 0 69 71 116 183 119
57 2 79 -2 122 -24z"/>
<path d="M4898 3969 c-74 -11 -153 -53 -206 -108 -47 -49 -48 -50 -49 -23 0
15 -2 48 -4 73 l-3 45 -115 0 -116 -1 0 -440 c0 -242 1 -445 3 -452 5 -16 242
-17 243 0 0 7 2 125 4 262 2 268 9 311 58 363 68 74 187 82 255 19 54 -50 56
-61 58 -362 1 -154 2 -283 3 -286 1 -4 55 -7 121 -8 108 -1 120 1 120 17 1 9
2 130 3 267 2 244 3 251 27 299 38 75 86 109 160 112 65 3 102 -11 137 -48 43
-46 46 -70 47 -363 l1 -280 120 -2 c65 -2 121 1 124 6 4 5 5 152 5 328 -2 302
-3 322 -24 387 -54 164 -215 236 -406 181 -87 -24 -183 -95 -200 -147 -8 -26
-21 -22 -28 8 -4 14 -28 47 -54 73 -70 70 -167 97 -284 80z"/>
<path d="M6460 3977 c-3 -3 -23 -7 -45 -10 -107 -14 -208 -70 -278 -154 -18
-21 -18 -22 61 -81 l79 -61 28 29 c94 98 303 88 363 -19 20 -36 33 -124 20
-137 -4 -3 -19 1 -35 9 -82 42 -273 48 -373 12 -66 -23 -135 -78 -166 -130
-39 -67 -43 -170 -10 -241 50 -108 165 -165 321 -159 105 3 164 26 229 86 l42
38 2 -37 c5 -74 1 -72 128 -72 l115 0 -3 318 -3 317 -31 65 c-51 105 -110 159
-218 199 -54 20 -214 40 -226 28z m150 -542 c80 -28 95 -56 64 -121 -49 -102
-271 -129 -330 -39 -21 31 -21 78 0 109 37 58 173 84 266 51z"/>
<path d="M4037 3956 c-57 -21 -99 -54 -138 -106 l-36 -48 -2 36 c-1 21 -3 46
-5 57 -3 11 -5 30 -5 41 -1 21 -5 22 -112 20 l-110 -1 0 -415 c0 -228 0 -432
0 -453 l1 -38 122 3 123 3 1 235 c0 262 10 316 66 384 50 61 99 80 204 79 l90
-1 0 100 c-1 91 -3 102 -21 108 -36 12 -139 10 -178 -4z"/>
<path d="M3630 2920 c-1 -90 -1 -1016 0 -1120 l0 -85 383 2 c210 0 389 2 397
2 13 1 15 20 15 114 0 61 -3 117 -7 122 -4 6 -102 10 -265 9 -142 0 -262 1
-268 3 -6 2 -10 179 -9 504 0 410 -2 502 -13 506 -8 3 -63 6 -123 7 l-110 1 0
-65z"/>
<path d="M6717 2980 c-9 -4 -13 -83 -15 -315 -1 -170 -4 -453 -6 -627 -3 -233
-1 -318 8 -319 13 -1 205 -1 224 0 9 1 12 134 12 631 l0 630 -22 1 c-86 4
-191 3 -201 -1z"/>
<path d="M6008 2644 c-2 -1 -28 -5 -58 -9 -104 -13 -212 -66 -274 -136 -21
-22 -34 -44 -29 -49 4 -4 39 -30 77 -59 72 -55 71 -54 115 -12 53 50 190 69
267 36 74 -31 100 -71 107 -168 3 -40 1 -47 -12 -41 -184 81 -404 60 -519 -49
-90 -85 -108 -229 -41 -330 54 -82 153 -128 279 -129 120 -1 221 37 272 102
l24 30 2 -32 c4 -49 7 -67 15 -74 5 -6 132 -9 212 -5 20 1 20 6 15 318 l-5
318 -32 66 c-53 108 -153 184 -273 208 -57 11 -138 20 -142 15z m152 -557 c39
-20 45 -28 48 -58 4 -49 -49 -110 -116 -131 -56 -19 -145 -18 -182 1 -96 50
-73 171 38 204 66 19 156 13 212 -16z"/>
<path d="M4850 2621 c-76 -24 -129 -53 -172 -94 -148 -139 -187 -395 -89 -590
76 -154 217 -237 411 -243 138 -4 230 18 348 86 l53 31 -58 74 c-59 77 -74 85
-107 60 -48 -37 -187 -58 -266 -41 -76 17 -146 75 -178 149 l-12 27 330 0 330
0 1 23 c6 90 4 130 -9 187 -38 172 -143 285 -308 333 -70 21 -206 19 -274 -2z
m228 -198 c44 -20 89 -66 107 -111 31 -71 44 -67 -196 -68 l-217 0 8 25 c17
57 30 79 65 114 20 20 51 41 68 46 52 15 126 12 165 -6z"/>
</g>
</svg>
